<svg id="svg" version="1.1" viewBox="0 0 410 410" xmlns="http://www.w3.org/2000/svg" xmlns:xlink="http://www.w3.org/1999/xlink" >
  <g id="svgg">
    <path id="path0" d="M2.322 2.014 C 1.045 3.291,-0.000 93.360,-0.000 202.168 L 0.000 400.000 200.196 400.000 L 400.393 400.000 399.383 387.805 L 398.374 375.610 217.561 373.984 L 36.747 372.358 55.651 328.455 C 66.048 304.309,75.140 283.089,75.856 281.301 C 77.703 276.688,80.356 279.871,86.076 293.561 C 90.474 304.088,90.487 305.268,86.180 303.616 C 79.737 301.143,86.522 328.936,96.026 343.949 C 96.326 344.422,105.128 340.891,115.587 336.103 C 144.610 322.816,173.048 322.054,211.640 333.529 C 248.920 344.614,277.323 345.612,301.626 336.690 C 321.311 329.464,320.729 331.087,311.899 308.013 L 305.100 290.244 285.497 296.937 C 264.261 304.189,271.078 304.614,197.659 291.455 C 155.813 283.956,146.614 286.486,126.754 310.964 C 108.030 334.042,103.702 335.808,97.834 322.764 C 94.573 315.513,94.597 314.590,97.963 317.886 C 105.514 325.281,109.901 322.223,135.282 291.870 C 149.117 275.325,162.047 259.985,164.016 257.781 C 166.807 254.658,176.811 257.413,209.395 270.280 C 244.207 284.027,251.894 286.056,255.386 282.417 C 262.423 275.086,337.949 94.157,336.044 89.193 C 328.865 70.483,320.707 83.192,283.181 171.545 C 262.859 219.390,245.700 259.155,245.048 259.911 C 244.396 260.668,226.653 254.448,205.619 246.090 C 157.644 227.027,164.036 225.668,134.071 261.306 L 108.501 291.718 95.714 266.997 C 76.693 230.224,74.543 231.375,48.780 292.115 L 27.642 341.954 26.016 171.790 L 24.390 1.626 14.517 0.659 C 9.087 0.127,3.599 0.737,2.322 2.014 M167.480 9.059 C 120.563 24.658,97.151 77.285,112.195 133.333 C 114.836 143.171,117.013 152.317,117.035 153.659 C 117.056 155.000,109.756 156.098,100.813 156.098 L 84.553 156.098 84.553 173.984 L 84.553 191.870 107.641 191.870 L 130.728 191.870 129.193 220.325 C 128.348 235.976,126.479 252.412,125.041 256.851 C 123.398 261.918,130.000 256.120,142.781 241.269 C 158.580 222.913,164.533 218.061,169.373 219.597 C 174.899 221.351,175.610 219.884,175.610 206.723 L 175.610 191.870 206.504 191.870 L 237.398 191.870 237.398 173.984 L 237.398 156.098 201.752 156.098 L 166.106 156.098 161.148 139.402 C 151.825 108.008,151.428 84.785,159.933 68.306 C 182.919 23.771,249.125 32.324,263.931 81.741 C 268.017 95.381,271.297 96.428,296.748 92.222 C 311.250 89.825,311.885 86.156,302.257 60.422 C 284.867 13.944,223.327 -9.508,167.480 9.059 " stroke="none" fill="#000000" fill-rule="evenodd"></path></g></svg>